<svg width="118" height="107" viewBox="0 0 118 107" fill="none" xmlns="http://www.w3.org/2000/svg">
<path d="M90.2826 40.2959C95.5734 42.873 101.566 43.6359 107.333 42.4666V101.667C107.333 103.081 106.771 104.438 105.771 105.438C104.771 106.438 103.414 107 102 107H5.99996C4.58547 107 3.22892 106.438 2.22872 105.438C1.22853 104.438 0.666626 103.081 0.666626 101.667V16.3333C0.666626 14.9188 1.22853 13.5622 2.22872 12.562C3.22892 11.5618 4.58547 10.9999 5.99996 10.9999H75.8666C75.5146 12.7226 75.3333 14.5093 75.3333 16.3333C75.3244 22.6695 77.5811 28.8002 81.696 33.6186L54.3253 57.3092L20.1173 28.2692L13.216 36.3973L54.3893 71.3572L90.2826 40.2959ZM102 32.3333C99.8988 32.3333 97.8182 31.9194 95.877 31.1153C93.9358 30.3112 92.172 29.1327 90.6862 27.647C89.2005 26.1612 88.022 24.3974 87.2179 22.4562C86.4138 20.515 86 18.4344 86 16.3333C86 14.2321 86.4138 12.1515 87.2179 10.2103C88.022 8.26911 89.2005 6.50528 90.6862 5.01954C92.172 3.53381 93.9358 2.35525 95.877 1.55118C97.8182 0.747104 99.8988 0.333252 102 0.333252C106.243 0.333252 110.313 2.01896 113.314 5.01954C116.314 8.02012 118 12.0898 118 16.3333C118 20.5767 116.314 24.6464 113.314 27.647C110.313 30.6475 106.243 32.3333 102 32.3333Z" fill="#A259FF"/>
</svg>
